<svg width="576" height="448" viewBox="0 0 576 448" fill="none" xmlns="http://www.w3.org/2000/svg">
<path d="M183.1 203.3C216.8 224 246 251.4 268.9 283.8C275.9 293.7 282.3 304.1 288 314.8C293.7 304 300.1 293.7 307.1 283.8C330 251.4 359.2 224 392.9 203.3C437.6 175.8 490.1 160 546 160H555.9C567 160 576 169 576 180.1C576 328.1 456.1 448 308.1 448H288H267.9C119.9 448 0 328.1 0 180.1C0 169 9 160 20.1 160H30C85.9 160 138.4 175.8 183.1 203.3ZM301.5 5.6C317.2 22.5 362.6 77.4 385.9 170.2C347.9 191.8 314.5 221 288 255.8C261.5 221 228.1 191.9 190.1 170.2C213.3 77.4 258.7 22.5 274.5 5.6C278 1.9 282.9 0 288 0C293.1 0 298 1.9 301.5 5.6Z" fill="#16676B" fill-opacity="0.15"/>
</svg>
