<svg viewBox="0 0 288 1024" fill="none" xmlns="http://www.w3.org/2000/svg">
<path fill="white" d="M32.0001 -208L58.7001 -168C85.0001 -128 139 -48 133.3 32C128 112 64.0001 192 80.0001 272C96.0001 352 192 432 218.7 512C245 592 203 672 176 752C149 832 139 912 160 992C181 1072 235 1152 261.3 1192L288 1232L5.91259e-05 1232L6.08744e-05 1192C6.26228e-05 1152 6.61197e-05 1072 6.96166e-05 992C7.31136e-05 912 7.66105e-05 832 8.01074e-05 752C8.36043e-05 672 8.71012e-05 592 9.05981e-05 512C9.4095e-05 432 9.75919e-05 352 0.000101089 272C0.000104586 192 0.000108083 112 0.00011158 32C0.000115076 -48 0.000118573 -128 0.000120322 -168L0.00012207 -208L32.0001 -208Z" />
</svg>
